<mxfile host="65bd71144e">
    <diagram id="547X1SeYlf6HdQV8utG8" name="Page-1">
        <mxGraphModel dx="906" dy="622" grid="1" gridSize="10" guides="1" tooltips="1" connect="1" arrows="1" fold="1" page="1" pageScale="1" pageWidth="827" pageHeight="1169" math="0" shadow="0">
            <root>
                <mxCell id="0"/>
                <mxCell id="1" parent="0"/>
                <mxCell id="2" value="" style="triangle;rotation=-90;fontColor=default;labelBorderColor=none;whiteSpace=wrap;html=1;verticalAlign=middle;labelPosition=center;verticalLabelPosition=middle;align=center;textDirection=rtl;" vertex="1" parent="1">
                    <mxGeometry x="489" y="109" width="55" height="225" as="geometry"/>
                </mxCell>
                <mxCell id="3" value="类/对象" style="text;strokeColor=none;align=center;fillColor=none;html=1;verticalAlign=middle;whiteSpace=wrap;rounded=0;labelBorderColor=none;fontColor=default;fontSize=17;" vertex="1" parent="1">
                    <mxGeometry x="486.5" y="210" width="60" height="30" as="geometry"/>
                </mxCell>
                <mxCell id="5" value="" style="shape=trapezoid;perimeter=trapezoidPerimeter;whiteSpace=wrap;html=1;fixedSize=1;labelBorderColor=none;fontSize=17;fontColor=default;" vertex="1" parent="1">
                    <mxGeometry x="380" y="280" width="270" height="50" as="geometry"/>
                </mxCell>
                <mxCell id="8" value="数据表/行/文档" style="text;strokeColor=none;align=center;fillColor=none;html=1;verticalAlign=middle;whiteSpace=wrap;rounded=0;labelBorderColor=none;fontColor=default;fontSize=17;" vertex="1" parent="1">
                    <mxGeometry x="457.5" y="290" width="115" height="30" as="geometry"/>
                </mxCell>
            </root>
        </mxGraphModel>
    </diagram>
</mxfile>